<svg width="166" height="105" viewBox="0 0 166 105" fill="none" xmlns="http://www.w3.org/2000/svg">
<g filter="url(#filter0_d_123_219)">
<rect x="4" width="158" height="97" rx="10" fill="#DCF333"/>
<rect x="4.5" y="0.5" width="157" height="96" rx="9.5" stroke="#D0DAE8"/>
<path d="M22.46 48.9111C23.3926 48.916 24.2251 49.0649 24.9575 49.3579C25.6948 49.646 26.271 50.0537 26.686 50.5811C27.1011 51.1035 27.3086 51.709 27.3086 52.3975C27.3086 53.042 27.1328 53.6157 26.7812 54.1187C26.4346 54.6167 25.9463 55.0171 25.3164 55.3198C24.6914 55.6177 23.9688 55.8008 23.1484 55.8691V58.4473H28.4951V59.6045H16.4834V58.4473H21.7715V55.8691C20.9561 55.8008 20.2358 55.6177 19.6108 55.3198C18.9858 55.0171 18.4976 54.6167 18.146 54.1187C17.7993 53.6157 17.626 53.042 17.626 52.3975C17.626 51.709 17.8335 51.1035 18.2485 50.5811C18.6636 50.0537 19.2373 49.646 19.9697 49.3579C20.7021 49.0649 21.5322 48.916 22.46 48.9111ZM22.46 50.0537C21.791 50.0488 21.1904 50.144 20.6582 50.3394C20.1309 50.5298 19.7183 50.8057 19.4204 51.167C19.1226 51.5234 18.9736 51.9336 18.9736 52.3975C18.9736 52.8809 19.1226 53.3032 19.4204 53.6646C19.7183 54.0259 20.1309 54.3042 20.6582 54.4995C21.1855 54.6948 21.7861 54.7949 22.46 54.7998C23.1387 54.7949 23.7417 54.6948 24.269 54.4995C24.8013 54.3042 25.2163 54.0259 25.5142 53.6646C25.812 53.3032 25.9609 52.8809 25.9609 52.3975C25.9609 51.9336 25.812 51.5234 25.5142 51.167C25.2163 50.8057 24.8013 50.5298 24.269 50.3394C23.7368 50.144 23.1338 50.0488 22.46 50.0537ZM39.6631 52.2363H30.6543V48.3105H32.0166V51.1084H39.6631V52.2363ZM41.0693 54.5068H29.0576V53.3936H41.0693V54.5068ZM39.5605 58.7695H31.9434V59.9854H40.0146V61.084H30.5518V57.7441H38.1836V56.6455H30.5225V55.5615H39.5605V58.7695ZM56.916 56.6455H51.584V61.2305H50.2217V56.6455H44.9482V55.5176H56.916V56.6455ZM55.7881 50.0098H51.7305C51.7354 50.542 51.9404 51.0498 52.3457 51.5332C52.7559 52.0117 53.3052 52.4194 53.9937 52.7563C54.6821 53.0884 55.4365 53.3105 56.2568 53.4229L55.7441 54.5215C55.0264 54.4092 54.3501 54.2212 53.7153 53.9575C53.0806 53.689 52.5239 53.3569 52.0454 52.9614C51.5669 52.561 51.1958 52.1143 50.9321 51.6211C50.5366 52.3633 49.9092 52.9907 49.0498 53.5034C48.1953 54.0112 47.2285 54.3506 46.1494 54.5215L45.6221 53.4229C46.4326 53.3105 47.1797 53.0884 47.8633 52.7563C48.5518 52.4194 49.1011 52.0117 49.5112 51.5332C49.9214 51.0498 50.1338 50.542 50.1484 50.0098H46.0615V48.8965H55.7881V50.0098ZM68.8018 61.2451H67.4688V48.1201H68.8018V61.2451ZM66.1357 60.5859H64.8174V53.9062H62.7812V52.7637H64.8174V48.3984H66.1357V60.5859ZM61.4922 51.7822C61.4922 52.5439 61.5947 53.2837 61.7998 54.0015C62.0098 54.7144 62.3198 55.3613 62.73 55.9424C63.145 56.5234 63.6504 56.9873 64.2461 57.334L63.4111 58.3594C62.8008 57.9932 62.2783 57.4951 61.8438 56.8652C61.4092 56.2354 61.0747 55.5151 60.8403 54.7046C60.6011 55.5835 60.2568 56.3672 59.8076 57.0557C59.3584 57.7393 58.8213 58.2764 58.1963 58.667L57.3467 57.627C57.9473 57.2607 58.4575 56.77 58.8774 56.1548C59.3022 55.5396 59.6221 54.856 59.8369 54.104C60.0518 53.3472 60.1592 52.5732 60.1592 51.7822V50.7275H57.7422V49.5996H63.748V50.7275H61.4922V51.7822ZM82.1377 59.6777H70.126V58.5059H75.4141V56.2061H71.5908V52.0312H79.2959V50.1855H71.5615V49.043H80.6729V53.1445H72.9678V55.0635H80.9805V56.2061H76.791V58.5059H82.1377V59.6777ZM20.2041 68.5596C20.8584 68.5645 21.4443 68.6938 21.9619 68.9478C22.4844 69.1968 22.8945 69.5459 23.1924 69.9951C23.4902 70.4395 23.6416 70.9424 23.6465 71.5039C23.6416 72.0703 23.4902 72.5757 23.1924 73.02C22.8945 73.4644 22.4844 73.811 21.9619 74.0601C21.4443 74.3091 20.8584 74.4336 20.2041 74.4336C19.5449 74.4336 18.9517 74.3091 18.4243 74.0601C17.9019 73.811 17.4917 73.4644 17.1938 73.02C16.896 72.5757 16.7471 72.0703 16.7471 71.5039C16.7471 70.9424 16.896 70.4395 17.1938 69.9951C17.4917 69.5459 17.9019 69.1968 18.4243 68.9478C18.9517 68.6938 19.5449 68.5645 20.2041 68.5596ZM20.2041 69.7314C19.8037 69.7266 19.4424 69.7974 19.1201 69.9438C18.8027 70.0903 18.5537 70.3003 18.373 70.5737C18.1924 70.8423 18.1045 71.1523 18.1094 71.5039C18.1045 71.8604 18.1899 72.1753 18.3657 72.4487C18.5464 72.7222 18.7954 72.9346 19.1128 73.0859C19.4351 73.2324 19.7988 73.3057 20.2041 73.3057C20.6045 73.3057 20.9634 73.23 21.2808 73.0786C21.5981 72.9272 21.8472 72.7173 22.0278 72.4487C22.2085 72.1753 22.2988 71.8604 22.2988 71.5039C22.2988 71.1523 22.2085 70.8423 22.0278 70.5737C21.8472 70.3003 21.5957 70.0903 21.2734 69.9438C20.9561 69.7974 20.5996 69.7266 20.2041 69.7314ZM27.3672 74.7998H25.9756V68.1201H27.3672V74.7998ZM27.3672 78.7109H20.1309V79.9707H27.8066V81.084H18.7832V77.6709H25.9902V76.5137H18.7393V75.4004H27.3672V78.7109ZM39.9854 81.2451H38.5791V68.1201H39.9854V81.2451ZM36.0742 69.5264C36.0742 71.5576 35.5884 73.3643 34.6167 74.9463C33.6499 76.5234 32.0898 77.8271 29.9365 78.8574L29.2041 77.7295C30.9277 76.9092 32.2339 75.9106 33.1226 74.7339C34.0161 73.5571 34.5312 72.1924 34.668 70.6396H29.834V69.5264H36.0742ZM49.0205 70.7715C49.0205 71.2012 49.0889 71.6455 49.2256 72.1045C49.3672 72.5586 49.582 72.9932 49.8701 73.4082C50.1582 73.8232 50.5122 74.1748 50.9321 74.4629C51.3521 74.1748 51.7061 73.8257 51.9941 73.4155C52.2822 73.0054 52.4946 72.5732 52.6313 72.1191C52.7729 71.6602 52.8438 71.2109 52.8438 70.7715V69.1309H54.25V70.7715C54.2451 71.3135 54.3403 71.8433 54.5356 72.3608C54.731 72.8784 55.0239 73.3472 55.4146 73.7671C55.8101 74.1821 56.291 74.5068 56.8574 74.7412L56.0957 75.7812C55.4854 75.5127 54.9629 75.1392 54.5283 74.6606C54.0986 74.1772 53.7666 73.6206 53.5322 72.9907C53.2979 73.6548 52.9634 74.2432 52.5288 74.7559C52.0991 75.2686 51.5645 75.6641 50.9248 75.9424C50.2852 75.6641 49.7456 75.2612 49.3062 74.7339C48.8667 74.2065 48.5322 73.6084 48.3027 72.9395C48.0635 73.5693 47.7266 74.1333 47.292 74.6313C46.8623 75.1245 46.3496 75.5078 45.7539 75.7812L45.0068 74.7412C45.5537 74.4971 46.0249 74.1602 46.4204 73.7305C46.8159 73.2959 47.1138 72.8198 47.314 72.3022C47.519 71.7847 47.624 71.2744 47.6289 70.7715V69.1309H49.0205V70.7715ZM56.9453 79.5166H44.9482V78.374H56.9453V79.5166ZM68.4502 81.2451H67.0439V68.1201H68.4502V81.2451ZM64.5391 69.5264C64.5391 71.5576 64.0532 73.3643 63.0815 74.9463C62.1147 76.5234 60.5547 77.8271 58.4014 78.8574L57.6689 77.7295C59.3926 76.9092 60.6987 75.9106 61.5874 74.7339C62.481 73.5571 62.9961 72.1924 63.1328 70.6396H58.2988V69.5264H64.5391Z" fill="#191919"/>
<path d="M18.5703 30.1016L21.9062 38.25H22.0293L25.3652 30.1016H26.8418V40H25.6797V32.5215H25.584L22.5078 40H21.4141L18.3379 32.5215H18.2559V40H17.0938V30.1016H18.5703ZM29.2809 42.7891C29.0439 42.7891 28.8251 42.7799 28.6246 42.7617V41.709C28.7887 41.7272 28.9801 41.7363 29.1988 41.7363C29.3948 41.7363 29.5589 41.7158 29.691 41.6748C29.8232 41.6338 29.9553 41.5312 30.0875 41.3672C30.2197 41.2077 30.3473 40.957 30.4703 40.6152L30.6891 40.0547L27.941 32.5762H29.2262L31.2496 38.4688H31.3316L33.3551 32.5762H34.6402L31.4957 41.0664C31.277 41.6452 30.9853 42.0758 30.6207 42.3584C30.2561 42.6455 29.8095 42.7891 29.2809 42.7891ZM44.3035 32.5898C44.2671 32.2708 44.1508 31.9974 43.9549 31.7695C43.7635 31.5371 43.5083 31.3617 43.1893 31.2432C42.8702 31.1201 42.5125 31.0586 42.116 31.0586C41.6876 31.0586 41.3071 31.1292 40.9744 31.2705C40.6463 31.4072 40.3911 31.5986 40.2088 31.8447C40.0311 32.0908 39.9422 32.3711 39.9422 32.6855C39.9422 33.1413 40.1268 33.4899 40.4959 33.7314C40.8696 33.973 41.323 34.1621 41.8563 34.2988L42.8406 34.5723C43.6063 34.7682 44.2648 35.0713 44.8162 35.4814C45.3676 35.887 45.6434 36.4954 45.6434 37.3066C45.6434 37.849 45.4998 38.3389 45.2127 38.7764C44.9301 39.2093 44.5177 39.5511 43.9754 39.8018C43.4376 40.0524 42.7951 40.1777 42.0477 40.1777C41.3458 40.1777 40.7329 40.0638 40.2088 39.8359C39.6847 39.6081 39.2745 39.2868 38.9783 38.8721C38.6821 38.4574 38.5158 37.9766 38.4793 37.4297H39.7371C39.7736 37.7852 39.8989 38.0859 40.1131 38.332C40.3273 38.5736 40.6007 38.7559 40.9334 38.8789C41.2706 38.9974 41.6421 39.0566 42.0477 39.0566C42.5034 39.0566 42.9113 38.9837 43.2713 38.8379C43.6359 38.6921 43.9207 38.4847 44.1258 38.2158C44.3354 37.9424 44.4402 37.6302 44.4402 37.2793C44.4402 36.9785 44.3536 36.7256 44.1805 36.5205C44.0118 36.3154 43.7885 36.1491 43.5105 36.0215C43.2371 35.8939 42.8953 35.7708 42.4852 35.6523L41.2684 35.3242C40.4572 35.0872 39.8351 34.7591 39.4021 34.3398C38.9692 33.9206 38.7527 33.3874 38.7527 32.7402C38.7527 32.1979 38.9008 31.7171 39.1971 31.2979C39.4979 30.874 39.9057 30.5459 40.4207 30.3135C40.9402 30.0811 41.519 29.9648 42.157 29.9648C42.7859 29.9648 43.351 30.0788 43.8523 30.3066C44.3536 30.5345 44.7501 30.849 45.0418 31.25C45.3335 31.6465 45.4884 32.0931 45.5066 32.5898H44.3035ZM50.1469 33.5605H48.5883V37.8672C48.5883 38.3047 48.6749 38.5986 48.848 38.749C49.0212 38.8994 49.2582 38.9746 49.559 38.9746C49.7868 38.9746 50.0193 38.9655 50.2563 38.9473V40.041C50.0193 40.0775 49.7458 40.0957 49.4359 40.0957C49.0896 40.0957 48.7615 40.0251 48.4516 39.8838C48.1417 39.738 47.8887 39.5192 47.6928 39.2275C47.4968 38.9359 47.3988 38.5827 47.3988 38.168V33.5605H46.2777V32.5762H47.3988V30.7988H48.5883V32.5762H50.1469V33.5605ZM54.2676 40.1504C53.5977 40.1504 53.0052 39.9932 52.4902 39.6787C51.9798 39.3597 51.5833 38.9108 51.3008 38.332C51.0182 37.7533 50.877 37.0833 50.877 36.3223C50.877 35.5612 51.0182 34.8913 51.3008 34.3125C51.5833 33.7292 51.9798 33.278 52.4902 32.959C53.0052 32.64 53.5977 32.4805 54.2676 32.4805C54.9329 32.4805 55.5186 32.64 56.0244 32.959C56.5348 33.278 56.929 33.7292 57.207 34.3125C57.4896 34.8913 57.6309 35.5612 57.6309 36.3223C57.6309 37.0833 57.4896 37.7533 57.207 38.332C56.929 38.9108 56.5348 39.3597 56.0244 39.6787C55.5186 39.9932 54.9329 40.1504 54.2676 40.1504ZM54.2676 39.1113C54.7461 39.1113 55.1494 38.986 55.4775 38.7354C55.8057 38.4801 56.0495 38.1429 56.209 37.7236C56.373 37.2998 56.4551 36.8327 56.4551 36.3223C56.4551 35.8118 56.373 35.3447 56.209 34.9209C56.0495 34.4971 55.8057 34.1576 55.4775 33.9023C55.1494 33.6471 54.7461 33.5195 54.2676 33.5195C53.7799 33.5195 53.3698 33.6471 53.0371 33.9023C52.709 34.1576 52.4629 34.4971 52.2988 34.9209C52.1348 35.3447 52.0527 35.8118 52.0527 36.3223C52.0527 36.8327 52.1348 37.2998 52.2988 37.7236C52.4629 38.1429 52.709 38.4801 53.0371 38.7354C53.3698 38.986 53.7799 39.1113 54.2676 39.1113ZM58.8258 32.5762H59.9605V33.7109H60.0426C60.1793 33.3327 60.4231 33.0296 60.774 32.8018C61.1249 32.5693 61.5191 32.4531 61.9566 32.4531C62.1845 32.4531 62.3896 32.4622 62.5719 32.4805V33.6699C62.5217 33.6517 62.4238 33.6335 62.2779 33.6152C62.1367 33.597 61.9977 33.5879 61.8609 33.5879C61.51 33.5879 61.1933 33.6631 60.9107 33.8135C60.6282 33.9639 60.4049 34.1712 60.2408 34.4355C60.0813 34.6999 60.0016 34.9961 60.0016 35.3242V40H58.8258V32.5762ZM64.3547 42.7891C64.1177 42.7891 63.899 42.7799 63.6984 42.7617V41.709C63.8625 41.7272 64.0539 41.7363 64.2727 41.7363C64.4686 41.7363 64.6327 41.7158 64.7648 41.6748C64.897 41.6338 65.0292 41.5312 65.1613 41.3672C65.2935 41.2077 65.4211 40.957 65.5441 40.6152L65.7629 40.0547L63.0148 32.5762H64.3L66.3234 38.4688H66.4055L68.4289 32.5762H69.7141L66.5695 41.0664C66.3508 41.6452 66.0591 42.0758 65.6945 42.3584C65.3299 42.6455 64.8833 42.7891 64.3547 42.7891Z" fill="#191919"/>
</g>
<defs>
<filter id="filter0_d_123_219" x="0" y="0" width="166" height="105" filterUnits="userSpaceOnUse" color-interpolation-filters="sRGB">
<feFlood flood-opacity="0" result="BackgroundImageFix"/>
<feColorMatrix in="SourceAlpha" type="matrix" values="0 0 0 0 0 0 0 0 0 0 0 0 0 0 0 0 0 0 127 0" result="hardAlpha"/>
<feOffset dy="4"/>
<feGaussianBlur stdDeviation="2"/>
<feComposite in2="hardAlpha" operator="out"/>
<feColorMatrix type="matrix" values="0 0 0 0 0 0 0 0 0 0 0 0 0 0 0 0 0 0 0.25 0"/>
<feBlend mode="normal" in2="BackgroundImageFix" result="effect1_dropShadow_123_219"/>
<feBlend mode="normal" in="SourceGraphic" in2="effect1_dropShadow_123_219" result="shape"/>
</filter>
</defs>
</svg>
