<svg width="166" height="105" viewBox="0 0 166 105" fill="none" xmlns="http://www.w3.org/2000/svg">
<g filter="url(#filter0_d_123_214)">
<rect x="4" width="158" height="97" rx="10" fill="#B286FF"/>
<rect x="4.5" y="0.5" width="157" height="96" rx="9.5" stroke="#D0DAE8"/>
<path d="M24.9365 53.1631C24.9316 53.8467 25.0781 54.5425 25.376 55.2505C25.6787 55.9536 26.0889 56.5908 26.6064 57.1621C27.124 57.7285 27.6953 58.1582 28.3203 58.4512L27.6611 59.3594C26.9336 59.0078 26.2769 58.4707 25.6909 57.748C25.1099 57.0254 24.6704 56.2197 24.3726 55.3311C24.1772 55.9658 23.9087 56.5688 23.5669 57.1401C23.2251 57.7114 22.8345 58.2168 22.395 58.6562C21.9556 59.0908 21.4941 59.4326 21.0107 59.6816L20.3076 58.7734C20.9277 58.4756 21.5039 58.0239 22.0361 57.4185C22.5732 56.813 23.0005 56.1343 23.3179 55.3823C23.6401 54.6304 23.8037 53.8906 23.8086 53.1631V51.4639H20.7764V50.5117H27.8662V51.4639H24.9365V53.1631ZM30.6055 54.4375H32.7881V55.4189H30.6055V62.1865H29.4629V49.1641H30.6055V54.4375ZM45.0254 57.543H41.876V62.1865H40.7188V57.543H37.3789V62.1865H36.1924V57.543H33.1016V56.5908H45.0254V57.543ZM39.0342 49.6914C39.9424 49.6914 40.7432 49.8086 41.4365 50.043C42.1299 50.2725 42.667 50.6021 43.0479 51.0317C43.4287 51.4614 43.6191 51.9619 43.6191 52.5332C43.6191 53.1045 43.4263 53.6025 43.0405 54.0273C42.6597 54.4521 42.1226 54.7793 41.4292 55.0088C40.7407 55.2383 39.9424 55.3506 39.0342 55.3457C38.126 55.3506 37.3252 55.2383 36.6318 55.0088C35.9434 54.7793 35.4062 54.4521 35.0205 54.0273C34.6396 53.6025 34.4492 53.1045 34.4492 52.5332C34.4492 51.9619 34.6396 51.4614 35.0205 51.0317C35.4014 50.6021 35.9385 50.2725 36.6318 50.043C37.3252 49.8086 38.126 49.6914 39.0342 49.6914ZM39.0342 50.6289C38.3604 50.6289 37.7646 50.707 37.2471 50.8633C36.7344 51.0195 36.3364 51.2417 36.0532 51.5298C35.77 51.8179 35.6309 52.1523 35.6357 52.5332C35.6309 52.9141 35.77 53.2485 36.0532 53.5366C36.3364 53.8198 36.7344 54.0396 37.2471 54.1958C37.7646 54.3472 38.3604 54.4229 39.0342 54.4229C39.7031 54.4229 40.2964 54.3472 40.814 54.1958C41.3315 54.0396 41.7319 53.8198 42.0151 53.5366C42.3032 53.2485 42.4473 52.9141 42.4473 52.5332C42.4473 52.1523 42.3032 51.8179 42.0151 51.5298C41.7319 51.2417 41.3315 51.0195 40.814 50.8633C40.2964 50.707 39.7031 50.6289 39.0342 50.6289ZM55.6719 51.0098C55.667 51.5664 55.8843 52.0986 56.3237 52.6064C56.7632 53.1094 57.3369 53.5342 58.0449 53.8809C58.7529 54.2275 59.4902 54.457 60.2568 54.5693L59.832 55.4775C59.1436 55.3604 58.4795 55.165 57.8398 54.8916C57.2051 54.6182 56.6411 54.2764 56.1479 53.8662C55.6548 53.4512 55.2812 52.9897 55.0273 52.4819C54.7734 52.9897 54.3999 53.4487 53.9067 53.8589C53.4136 54.269 52.8496 54.6133 52.2148 54.8916C51.585 55.165 50.9307 55.3604 50.252 55.4775L49.7979 54.5693C50.5596 54.457 51.2944 54.2275 52.0024 53.8809C52.7104 53.5342 53.2842 53.1094 53.7236 52.6064C54.1631 52.0986 54.3828 51.5664 54.3828 51.0098V50.9219H50.208V49.9844H59.832V50.9219H55.6719V51.0098ZM60.96 57.543H55.5693V62.1865H54.4414V57.543H49.0947V56.5908H60.96V57.543ZM72.8164 62.1865H71.7178V49.1641H72.8164V62.1865ZM70.1797 61.5127H69.0957V54.8037H66.8984V53.8662H69.0957V49.4863H70.1797V61.5127ZM65.5068 52.8848C65.5068 53.6416 65.6167 54.3813 65.8364 55.104C66.0562 55.8218 66.3784 56.4712 66.8032 57.0522C67.228 57.6284 67.7334 58.085 68.3193 58.4219L67.6162 59.2715C66.9863 58.8955 66.4468 58.3755 65.9976 57.7114C65.5483 57.0425 65.2065 56.2856 64.9722 55.4409C64.7329 56.354 64.3789 57.1719 63.9102 57.8945C63.4463 58.6172 62.8945 59.1787 62.2549 59.5791L61.5225 58.7148C62.1133 58.3633 62.626 57.8823 63.0605 57.272C63.4951 56.6616 63.8247 55.978 64.0493 55.2212C64.2788 54.4595 64.3936 53.6807 64.3936 52.8848V51.6543H61.8887V50.7021H67.8945V51.6543H65.5068V52.8848ZM86.1963 60.5752H74.2725V59.6084H79.6338V57.1475H75.7666V53.1338H83.5596V51.083H75.7373V50.1309H84.6875V54.0713H76.9092V56.1953H84.9951V57.1475H80.7617V59.6084H86.1963V60.5752ZM24.2188 69.6475C24.8633 69.6523 25.4395 69.7769 25.9473 70.021C26.46 70.2651 26.8604 70.6069 27.1484 71.0464C27.4414 71.481 27.5879 71.9766 27.5879 72.5332C27.5879 73.0898 27.4414 73.5879 27.1484 74.0273C26.8604 74.4619 26.46 74.8013 25.9473 75.0454C25.4395 75.2847 24.8633 75.4043 24.2188 75.4043C23.5645 75.4043 22.981 75.2847 22.4683 75.0454C21.9556 74.8013 21.5552 74.4619 21.2671 74.0273C20.979 73.5879 20.835 73.0898 20.835 72.5332C20.835 71.9766 20.979 71.481 21.2671 71.0464C21.5552 70.6069 21.9556 70.2651 22.4683 70.021C22.981 69.7769 23.5645 69.6523 24.2188 69.6475ZM24.2188 70.6143C23.7891 70.6143 23.4009 70.6973 23.0542 70.8633C22.7124 71.0244 22.4438 71.2515 22.2485 71.5444C22.0532 71.8325 21.958 72.1621 21.9629 72.5332C21.958 72.9092 22.0532 73.2437 22.2485 73.5366C22.4438 73.8296 22.7124 74.0591 23.0542 74.2251C23.4009 74.3862 23.7891 74.4668 24.2188 74.4668C24.6436 74.4668 25.0269 74.3862 25.3687 74.2251C25.7153 74.0591 25.9863 73.8296 26.1816 73.5366C26.377 73.2437 26.4746 72.9092 26.4746 72.5332C26.4746 72.1621 26.377 71.8325 26.1816 71.5444C25.9863 71.2515 25.7153 71.0244 25.3687 70.8633C25.0269 70.6973 24.6436 70.6143 24.2188 70.6143ZM31.2793 75.8584H30.1367V69.1641H31.2793V75.8584ZM31.2793 79.623H23.9697V81.0879H31.748V82.0107H22.8418V78.7588H30.1367V77.4111H22.8125V76.4883H31.2793V79.623ZM43.8828 82.1865H42.7256V69.1641H43.8828V82.1865ZM40.0303 70.585C40.0205 72.5527 39.5225 74.3203 38.5361 75.8877C37.5498 77.4502 36.0068 78.7344 33.9072 79.7402L33.2773 78.8027C35.0156 77.9775 36.3462 76.9521 37.269 75.7266C38.1968 74.501 38.7266 73.0996 38.8584 71.5225H33.8779V70.585H40.0303ZM53.0205 71.8887C53.0205 72.3135 53.0962 72.7578 53.2476 73.2217C53.3989 73.6855 53.626 74.1299 53.9287 74.5547C54.2363 74.9795 54.605 75.3384 55.0347 75.6313C55.4595 75.3481 55.8232 74.999 56.126 74.584C56.4287 74.1641 56.6558 73.7197 56.8071 73.251C56.9585 72.7822 57.0342 72.3281 57.0342 71.8887V70.2188H58.1914V71.8887C58.1865 72.4258 58.2866 72.9556 58.4917 73.478C58.7017 73.9956 59.0068 74.4644 59.4072 74.8843C59.8076 75.2993 60.2861 75.624 60.8428 75.8584L60.1982 76.7373C59.5781 76.459 59.0459 76.0684 58.6016 75.5654C58.1621 75.0625 57.8301 74.4863 57.6055 73.8369C57.3809 74.5059 57.0513 75.1089 56.6167 75.646C56.1821 76.1782 55.6523 76.5908 55.0273 76.8838C54.3975 76.5908 53.8628 76.1685 53.4233 75.6167C52.9839 75.0649 52.6519 74.4497 52.4272 73.771C52.1929 74.4204 51.8535 75.0063 51.4092 75.5288C50.9648 76.0513 50.4424 76.4541 49.8418 76.7373L49.2266 75.8584C49.7588 75.6143 50.2251 75.2749 50.6255 74.8403C51.0259 74.4009 51.3335 73.9224 51.5483 73.4048C51.7632 72.8872 51.873 72.3818 51.8779 71.8887V70.2188H53.0205V71.8887ZM61.0039 80.4287H49.0947V79.4766H61.0039V80.4287ZM72.4502 82.1865H71.293V69.1641H72.4502V82.1865ZM68.5977 70.585C68.5879 72.5527 68.0898 74.3203 67.1035 75.8877C66.1172 77.4502 64.5742 78.7344 62.4746 79.7402L61.8447 78.8027C63.583 77.9775 64.9136 76.9521 65.8364 75.7266C66.7642 74.501 67.2939 73.0996 67.4258 71.5225H62.4453V70.585H68.5977Z" fill="#191919"/>
<path d="M21.5703 31.1016L24.9062 39.25H25.0293L28.3652 31.1016H29.8418V41H28.6797V33.5215H28.584L25.5078 41H24.4141L21.3379 33.5215H21.2559V41H20.0938V31.1016H21.5703ZM32.2809 43.7891C32.0439 43.7891 31.8251 43.7799 31.6246 43.7617V42.709C31.7887 42.7272 31.9801 42.7363 32.1988 42.7363C32.3948 42.7363 32.5589 42.7158 32.691 42.6748C32.8232 42.6338 32.9553 42.5312 33.0875 42.3672C33.2197 42.2077 33.3473 41.957 33.4703 41.6152L33.6891 41.0547L30.941 33.5762H32.2262L34.2496 39.4688H34.3316L36.3551 33.5762H37.6402L34.4957 42.0664C34.277 42.6452 33.9853 43.0758 33.6207 43.3584C33.2561 43.6455 32.8095 43.7891 32.2809 43.7891ZM47.3035 33.5898C47.2671 33.2708 47.1508 32.9974 46.9549 32.7695C46.7635 32.5371 46.5083 32.3617 46.1893 32.2432C45.8702 32.1201 45.5125 32.0586 45.116 32.0586C44.6876 32.0586 44.3071 32.1292 43.9744 32.2705C43.6463 32.4072 43.3911 32.5986 43.2088 32.8447C43.0311 33.0908 42.9422 33.3711 42.9422 33.6855C42.9422 34.1413 43.1268 34.4899 43.4959 34.7314C43.8696 34.973 44.323 35.1621 44.8563 35.2988L45.8406 35.5723C46.6063 35.7682 47.2648 36.0713 47.8162 36.4814C48.3676 36.887 48.6434 37.4954 48.6434 38.3066C48.6434 38.849 48.4998 39.3389 48.2127 39.7764C47.9301 40.2093 47.5177 40.5511 46.9754 40.8018C46.4376 41.0524 45.7951 41.1777 45.0477 41.1777C44.3458 41.1777 43.7329 41.0638 43.2088 40.8359C42.6847 40.6081 42.2745 40.2868 41.9783 39.8721C41.6821 39.4574 41.5158 38.9766 41.4793 38.4297H42.7371C42.7736 38.7852 42.8989 39.0859 43.1131 39.332C43.3273 39.5736 43.6007 39.7559 43.9334 39.8789C44.2706 39.9974 44.6421 40.0566 45.0477 40.0566C45.5034 40.0566 45.9113 39.9837 46.2713 39.8379C46.6359 39.6921 46.9207 39.4847 47.1258 39.2158C47.3354 38.9424 47.4402 38.6302 47.4402 38.2793C47.4402 37.9785 47.3536 37.7256 47.1805 37.5205C47.0118 37.3154 46.7885 37.1491 46.5105 37.0215C46.2371 36.8939 45.8953 36.7708 45.4852 36.6523L44.2684 36.3242C43.4572 36.0872 42.8351 35.7591 42.4021 35.3398C41.9692 34.9206 41.7527 34.3874 41.7527 33.7402C41.7527 33.1979 41.9008 32.7171 42.1971 32.2979C42.4979 31.874 42.9057 31.5459 43.4207 31.3135C43.9402 31.0811 44.519 30.9648 45.157 30.9648C45.7859 30.9648 46.351 31.0788 46.8523 31.3066C47.3536 31.5345 47.7501 31.849 48.0418 32.25C48.3335 32.6465 48.4884 33.0931 48.5066 33.5898H47.3035ZM53.1469 34.5605H51.5883V38.8672C51.5883 39.3047 51.6749 39.5986 51.848 39.749C52.0212 39.8994 52.2582 39.9746 52.559 39.9746C52.7868 39.9746 53.0193 39.9655 53.2563 39.9473V41.041C53.0193 41.0775 52.7458 41.0957 52.4359 41.0957C52.0896 41.0957 51.7615 41.0251 51.4516 40.8838C51.1417 40.738 50.8887 40.5192 50.6928 40.2275C50.4968 39.9359 50.3988 39.5827 50.3988 39.168V34.5605H49.2777V33.5762H50.3988V31.7988H51.5883V33.5762H53.1469V34.5605ZM57.2676 41.1504C56.5977 41.1504 56.0052 40.9932 55.4902 40.6787C54.9798 40.3597 54.5833 39.9108 54.3008 39.332C54.0182 38.7533 53.877 38.0833 53.877 37.3223C53.877 36.5612 54.0182 35.8913 54.3008 35.3125C54.5833 34.7292 54.9798 34.278 55.4902 33.959C56.0052 33.64 56.5977 33.4805 57.2676 33.4805C57.9329 33.4805 58.5186 33.64 59.0244 33.959C59.5348 34.278 59.929 34.7292 60.207 35.3125C60.4896 35.8913 60.6309 36.5612 60.6309 37.3223C60.6309 38.0833 60.4896 38.7533 60.207 39.332C59.929 39.9108 59.5348 40.3597 59.0244 40.6787C58.5186 40.9932 57.9329 41.1504 57.2676 41.1504ZM57.2676 40.1113C57.7461 40.1113 58.1494 39.986 58.4775 39.7354C58.8057 39.4801 59.0495 39.1429 59.209 38.7236C59.373 38.2998 59.4551 37.8327 59.4551 37.3223C59.4551 36.8118 59.373 36.3447 59.209 35.9209C59.0495 35.4971 58.8057 35.1576 58.4775 34.9023C58.1494 34.6471 57.7461 34.5195 57.2676 34.5195C56.7799 34.5195 56.3698 34.6471 56.0371 34.9023C55.709 35.1576 55.4629 35.4971 55.2988 35.9209C55.1348 36.3447 55.0527 36.8118 55.0527 37.3223C55.0527 37.8327 55.1348 38.2998 55.2988 38.7236C55.4629 39.1429 55.709 39.4801 56.0371 39.7354C56.3698 39.986 56.7799 40.1113 57.2676 40.1113ZM61.8258 33.5762H62.9605V34.7109H63.0426C63.1793 34.3327 63.4231 34.0296 63.774 33.8018C64.1249 33.5693 64.5191 33.4531 64.9566 33.4531C65.1845 33.4531 65.3896 33.4622 65.5719 33.4805V34.6699C65.5217 34.6517 65.4238 34.6335 65.2779 34.6152C65.1367 34.597 64.9977 34.5879 64.8609 34.5879C64.51 34.5879 64.1933 34.6631 63.9107 34.8135C63.6282 34.9639 63.4049 35.1712 63.2408 35.4355C63.0813 35.6999 63.0016 35.9961 63.0016 36.3242V41H61.8258V33.5762ZM67.3547 43.7891C67.1177 43.7891 66.899 43.7799 66.6984 43.7617V42.709C66.8625 42.7272 67.0539 42.7363 67.2727 42.7363C67.4686 42.7363 67.6327 42.7158 67.7648 42.6748C67.897 42.6338 68.0292 42.5312 68.1613 42.3672C68.2935 42.2077 68.4211 41.957 68.5441 41.6152L68.7629 41.0547L66.0148 33.5762H67.3L69.3234 39.4688H69.4055L71.4289 33.5762H72.7141L69.5695 42.0664C69.3508 42.6452 69.0591 43.0758 68.6945 43.3584C68.3299 43.6455 67.8833 43.7891 67.3547 43.7891Z" fill="#191919"/>
</g>
<defs>
<filter id="filter0_d_123_214" x="0" y="0" width="166" height="105" filterUnits="userSpaceOnUse" color-interpolation-filters="sRGB">
<feFlood flood-opacity="0" result="BackgroundImageFix"/>
<feColorMatrix in="SourceAlpha" type="matrix" values="0 0 0 0 0 0 0 0 0 0 0 0 0 0 0 0 0 0 127 0" result="hardAlpha"/>
<feOffset dy="4"/>
<feGaussianBlur stdDeviation="2"/>
<feComposite in2="hardAlpha" operator="out"/>
<feColorMatrix type="matrix" values="0 0 0 0 0 0 0 0 0 0 0 0 0 0 0 0 0 0 0.25 0"/>
<feBlend mode="normal" in2="BackgroundImageFix" result="effect1_dropShadow_123_214"/>
<feBlend mode="normal" in="SourceGraphic" in2="effect1_dropShadow_123_214" result="shape"/>
</filter>
</defs>
</svg>
