<svg width="338" height="105" viewBox="0 0 338 105" fill="none" xmlns="http://www.w3.org/2000/svg">
<g filter="url(#filter0_d_123_210)">
<rect x="4" width="330" height="97" rx="10" fill="#CD0087"/>
<rect x="4.5" y="0.5" width="329" height="96" rx="9.5" stroke="#D0DAE8"/>
<path d="M23.0625 17.8594L27.5352 28.8164H27.7109L32.1836 17.8594H34.8008V32H32.75V21.7852H32.6133L28.4727 31.9805H26.7734L22.6133 21.7656H22.4961V32H20.4453V17.8594H23.0625ZM38.5391 17.8594L42.2109 24.2656H42.3672L46.0586 17.8594H48.5L43.3633 26.4531V32H41.2148V26.4531L36.0977 17.8594H38.5391ZM20.4453 37.8594H22.5938V43.9922H29.625V37.8594H31.7734V52H29.625V45.8281H22.5938V52H20.4453V37.8594ZM36.3125 52H34.1641V37.8594H36.3125V52ZM46.3789 41.5898C46.3138 40.9453 46.0176 40.4408 45.4902 40.0762C44.9629 39.7051 44.2891 39.5195 43.4688 39.5195C42.9023 39.5195 42.4043 39.6107 41.9746 39.793C41.5449 39.9688 41.2129 40.2161 40.9785 40.5352C40.7507 40.8477 40.6367 41.2057 40.6367 41.6094C40.6367 42.2083 40.8809 42.6673 41.3691 42.9863C41.8574 43.3053 42.4727 43.556 43.2148 43.7383L44.582 44.1094C45.7214 44.3763 46.6849 44.819 47.4727 45.4375C48.2604 46.056 48.6576 46.9414 48.6641 48.0938C48.6576 48.8945 48.446 49.6074 48.0293 50.2324C47.6126 50.8574 47.0104 51.349 46.2227 51.707C45.4349 52.0586 44.4974 52.2344 43.4102 52.2344C42.362 52.2344 41.4473 52.0684 40.666 51.7363C39.8913 51.3978 39.2826 50.916 38.8398 50.291C38.4036 49.666 38.1628 48.9271 38.1172 48.0742H40.2656C40.3307 48.8164 40.653 49.3828 41.2324 49.7734C41.8118 50.1641 42.5378 50.3594 43.4102 50.3594C44.0026 50.3594 44.5332 50.265 45.002 50.0762C45.4772 49.8809 45.8483 49.6107 46.1152 49.2656C46.3887 48.9141 46.5286 48.5104 46.5352 48.0547C46.5286 47.4883 46.2975 47.0488 45.8418 46.7363C45.3861 46.4173 44.7253 46.1471 43.8594 45.9258L42.1797 45.4766C39.7188 44.7995 38.4883 43.5495 38.4883 41.7266C38.4883 40.9323 38.7064 40.2259 39.1426 39.6074C39.5853 38.9889 40.1908 38.5104 40.959 38.1719C41.7272 37.8333 42.5833 37.6641 43.5273 37.6641C44.4714 37.6641 45.3145 37.8333 46.0566 38.1719C46.7988 38.5039 47.3815 38.9694 47.8047 39.5684C48.2279 40.1608 48.4492 40.8346 48.4688 41.5898H46.3789ZM49.7656 37.8594H60.7227V39.7148H56.3281V52H54.1797V39.7148H49.7656V37.8594ZM74.0898 44.9297C74.0898 46.401 73.8164 47.6868 73.2695 48.7871C72.7227 49.8809 71.9642 50.724 70.9941 51.3164C70.0306 51.9023 68.9401 52.1953 67.7227 52.1953C66.4922 52.1953 65.3919 51.9023 64.4219 51.3164C63.4583 50.724 62.7031 49.8809 62.1562 48.7871C61.6094 47.6868 61.3359 46.401 61.3359 44.9297C61.3359 43.4518 61.6094 42.166 62.1562 41.0723C62.7031 39.972 63.4583 39.1289 64.4219 38.543C65.3919 37.957 66.4922 37.6641 67.7227 37.6641C68.9401 37.6641 70.0306 37.957 70.9941 38.543C71.9642 39.1289 72.7227 39.972 73.2695 41.0723C73.8164 42.166 74.0898 43.4518 74.0898 44.9297ZM71.9609 44.9297C71.9609 43.8099 71.7786 42.8529 71.4141 42.0586C71.0495 41.2643 70.5449 40.6621 69.9004 40.252C69.2624 39.8418 68.5365 39.6367 67.7227 39.6367C66.9023 39.6367 66.1699 39.8418 65.5254 40.252C64.8809 40.6621 64.3763 41.2643 64.0117 42.0586C63.6471 42.8529 63.4648 43.8099 63.4648 44.9297C63.4648 46.0495 63.6471 47.0065 64.0117 47.8008C64.3763 48.5951 64.8809 49.1973 65.5254 49.6074C66.1699 50.0176 66.9023 50.2227 67.7227 50.2227C68.5365 50.2227 69.2624 50.0176 69.9004 49.6074C70.5449 49.1973 71.0495 48.5951 71.4141 47.8008C71.7786 47 71.9609 46.043 71.9609 44.9297ZM76.0117 37.8594H81.0508C82.1185 37.8594 83.0169 38.0449 83.7461 38.416C84.4818 38.7871 85.0319 39.3079 85.3965 39.9785C85.7676 40.6426 85.9531 41.4141 85.9531 42.293C85.9531 43.2565 85.735 44.0833 85.2988 44.7734C84.8626 45.4635 84.2214 45.9681 83.375 46.2871L86.5 52H84.0586L81.1875 46.668H81.0508H78.1602V52H76.0117V37.8594ZM80.8359 44.8125C81.8516 44.8125 82.597 44.6009 83.0723 44.1777C83.5475 43.748 83.7852 43.1198 83.7852 42.293C83.7852 41.4596 83.5443 40.8184 83.0625 40.3691C82.5872 39.9199 81.8451 39.6953 80.8359 39.6953H78.1602V44.8125H80.8359ZM88.6758 37.8594L92.3477 44.2656H92.5039L96.1953 37.8594H98.6367L93.5 46.4531V52H91.3516V46.4531L86.2344 37.8594H88.6758Z" fill="white"/>
<path d="M189.113 77.2344H187.097V84.4062H185.097V70.2188H187.097V75.6094H189.113V77.2344ZM178.316 79.2891C180.331 79.2526 182.274 79.0469 184.144 78.6719L184.347 80.3281C183.243 80.5521 182.128 80.7109 181.003 80.8047C179.883 80.8932 178.738 80.9375 177.566 80.9375H176.331V71.5781H178.316V79.2891ZM193.916 71.1719C194.655 71.1667 195.324 71.3151 195.923 71.6172C196.528 71.9141 196.999 72.3281 197.338 72.8594C197.681 73.3906 197.853 73.9896 197.853 74.6562C197.853 75.3281 197.681 75.9297 197.338 76.4609C196.999 76.9922 196.53 77.4089 195.931 77.7109C195.332 78.0078 194.66 78.1562 193.916 78.1562C193.171 78.1562 192.496 78.0078 191.892 77.7109C191.293 77.4089 190.822 76.9922 190.478 76.4609C190.134 75.9297 189.963 75.3281 189.963 74.6562C189.963 73.9896 190.134 73.3906 190.478 72.8594C190.822 72.3281 191.296 71.9141 191.9 71.6172C192.504 71.3151 193.176 71.1667 193.916 71.1719ZM193.916 72.8906C193.541 72.8906 193.202 72.9609 192.9 73.1016C192.598 73.2422 192.361 73.4479 192.189 73.7188C192.022 73.9844 191.942 74.2969 191.947 74.6562C191.942 75.0208 192.022 75.3359 192.189 75.6016C192.361 75.8672 192.595 76.0703 192.892 76.2109C193.194 76.3516 193.535 76.4219 193.916 76.4219C194.296 76.4219 194.634 76.3516 194.931 76.2109C195.233 76.0703 195.47 75.8672 195.642 75.6016C195.819 75.3359 195.91 75.0208 195.916 74.6562C195.91 74.2917 195.822 73.9766 195.65 73.7109C195.478 73.4453 195.241 73.2422 194.939 73.1016C194.637 72.9609 194.296 72.8906 193.916 72.8906ZM201.259 84.4688H199.275V70.2188H201.259V84.4688ZM190.15 79.9375C193.489 79.9375 196.259 79.7865 198.463 79.4844L198.619 80.9219C197.223 81.1927 195.798 81.3672 194.345 81.4453C192.892 81.5234 191.311 81.5625 189.603 81.5625L189.369 79.9375H190.15ZM210.069 70.6406C210.782 70.6406 211.428 70.7786 212.006 71.0547C212.584 71.3307 213.038 71.7161 213.366 72.2109C213.699 72.7057 213.866 73.2656 213.866 73.8906C213.866 74.5052 213.699 75.0599 213.366 75.5547C213.038 76.0443 212.584 76.4297 212.006 76.7109C211.428 76.987 210.782 77.125 210.069 77.125C209.345 77.125 208.691 76.987 208.108 76.7109C207.524 76.4297 207.066 76.0443 206.733 75.5547C206.405 75.0599 206.241 74.5052 206.241 73.8906C206.241 73.2656 206.405 72.7057 206.733 72.2109C207.066 71.7161 207.522 71.3307 208.1 71.0547C208.683 70.7786 209.34 70.6406 210.069 70.6406ZM210.069 72.2656C209.704 72.2656 209.376 72.3307 209.084 72.4609C208.798 72.5859 208.574 72.7734 208.413 73.0234C208.251 73.2682 208.173 73.5573 208.178 73.8906C208.173 74.224 208.251 74.513 208.413 74.7578C208.574 75.0026 208.798 75.1901 209.084 75.3203C209.376 75.4505 209.704 75.5156 210.069 75.5156C210.428 75.5156 210.748 75.4505 211.03 75.3203C211.316 75.1901 211.54 75.0026 211.702 74.7578C211.863 74.513 211.944 74.224 211.944 73.8906C211.944 73.5521 211.863 73.2604 211.702 73.0156C211.54 72.7708 211.316 72.5859 211.03 72.4609C210.748 72.3307 210.428 72.2656 210.069 72.2656ZM217.928 77.3438H215.928V70.2188H217.928V77.3438ZM217.928 81.7969H210.366V82.7188H218.319V84.2812H208.413V80.3438H215.944V79.4688H208.381V77.9375H217.928V81.7969ZM231.403 84.4375H229.388V70.2188H231.403V84.4375ZM227.138 71.7031C227.138 73.224 226.932 74.6068 226.52 75.8516C226.114 77.0964 225.427 78.2396 224.458 79.2812C223.489 80.3177 222.184 81.224 220.544 82L219.497 80.4062C220.71 79.8333 221.71 79.1953 222.497 78.4922C223.289 77.7891 223.893 77.0104 224.309 76.1562C224.731 75.2969 224.997 74.3333 225.106 73.2656H220.263V71.7031H227.138ZM248.119 84.4375H246.103V70.2188H248.119V84.4375ZM243.853 71.7031C243.853 73.224 243.647 74.6068 243.236 75.8516C242.83 77.0964 242.142 78.2396 241.173 79.2812C240.205 80.3177 238.9 81.224 237.259 82L236.213 80.4062C237.426 79.8333 238.426 79.1953 239.213 78.4922C240.004 77.7891 240.608 77.0104 241.025 76.1562C241.447 75.2969 241.713 74.3333 241.822 73.2656H236.978V71.7031H243.853ZM262.594 79.4375H249.578V77.8438H255.094V76.8125H251.203V72.9062H259.016V72.0312H251.172V70.4844H261.016V74.3438H253.188V75.2812H261.281V76.8125H257.078V77.8438H262.594V79.4375ZM261.094 84.375H259.078V81.8125H251.031V80.25H261.094V84.375ZM279.325 82.7812H266.309V81.1406H271.794V78.2344H267.684V71.2656H277.872V78.2344H273.778V81.1406H279.325V82.7812ZM269.653 76.6719H275.903V72.8594H269.653V76.6719ZM283.566 71.2188C284.284 71.2188 284.928 71.4271 285.495 71.8438C286.063 72.2552 286.506 72.8438 286.823 73.6094C287.146 74.375 287.31 75.2656 287.316 76.2812C287.31 77.3021 287.146 78.1979 286.823 78.9688C286.506 79.7344 286.063 80.3255 285.495 80.7422C284.933 81.1536 284.29 81.3594 283.566 81.3594C282.842 81.3594 282.193 81.1536 281.62 80.7422C281.053 80.3255 280.607 79.7344 280.284 78.9688C279.967 78.1979 279.81 77.3021 279.816 76.2812C279.81 75.2708 279.967 74.3828 280.284 73.6172C280.607 72.8516 281.053 72.2604 281.62 71.8438C282.193 71.4271 282.842 71.2188 283.566 71.2188ZM283.566 73.0156C283.201 73.0156 282.881 73.1432 282.605 73.3984C282.329 73.6484 282.115 74.0182 281.964 74.5078C281.813 74.9974 281.738 75.5885 281.738 76.2812C281.738 76.974 281.813 77.5677 281.964 78.0625C282.115 78.5521 282.329 78.9219 282.605 79.1719C282.881 79.4219 283.201 79.5469 283.566 79.5469C283.935 79.5469 284.258 79.4219 284.534 79.1719C284.81 78.9219 285.024 78.5521 285.175 78.0625C285.326 77.5729 285.404 76.9792 285.409 76.2812C285.404 75.5885 285.326 74.9974 285.175 74.5078C285.024 74.0182 284.81 73.6484 284.534 73.3984C284.258 73.1432 283.935 73.0156 283.566 73.0156ZM290.956 75.5781H293.05V77.2344H290.956V84.4375H288.956V70.2188H290.956V75.5781ZM306.181 82.7812H293.166V81.1562H298.65V78.5312H294.541V71.125H296.541V73.3281H302.744V71.125H304.728V78.5312H300.634V81.1562H306.181V82.7812ZM302.744 76.9375V74.9219H296.541V76.9375H302.744ZM318.547 84.4375H316.531V70.2188H318.547V84.4375ZM314.281 71.7031C314.281 73.224 314.076 74.6068 313.664 75.8516C313.258 77.0964 312.57 78.2396 311.602 79.2812C310.633 80.3177 309.328 81.224 307.688 82L306.641 80.4062C307.854 79.8333 308.854 79.1953 309.641 78.4922C310.432 77.7891 311.036 77.0104 311.453 76.1562C311.875 75.2969 312.141 74.3333 312.25 73.2656H307.406V71.7031H314.281Z" fill="white"/>
</g>
<defs>
<filter id="filter0_d_123_210" x="0" y="0" width="338" height="105" filterUnits="userSpaceOnUse" color-interpolation-filters="sRGB">
<feFlood flood-opacity="0" result="BackgroundImageFix"/>
<feColorMatrix in="SourceAlpha" type="matrix" values="0 0 0 0 0 0 0 0 0 0 0 0 0 0 0 0 0 0 127 0" result="hardAlpha"/>
<feOffset dy="4"/>
<feGaussianBlur stdDeviation="2"/>
<feComposite in2="hardAlpha" operator="out"/>
<feColorMatrix type="matrix" values="0 0 0 0 0 0 0 0 0 0 0 0 0 0 0 0 0 0 0.25 0"/>
<feBlend mode="normal" in2="BackgroundImageFix" result="effect1_dropShadow_123_210"/>
<feBlend mode="normal" in="SourceGraphic" in2="effect1_dropShadow_123_210" result="shape"/>
</filter>
</defs>
</svg>
