<svg width="338" height="128" viewBox="0 0 338 128" fill="none" xmlns="http://www.w3.org/2000/svg">
<g filter="url(#filter0_d_123_190)">
<rect x="4" width="330" height="120" rx="10" fill="url(#paint0_linear_123_190)"/>
<rect x="4.5" y="0.5" width="329" height="119" rx="9.5" stroke="#D0DAE8"/>
<path d="M19.7422 17.8594H30.6992V19.7148H26.3047V32H24.1562V19.7148H19.7422V17.8594ZM44.0664 24.9297C44.0664 26.401 43.793 27.6868 43.2461 28.7871C42.6992 29.8809 41.9408 30.724 40.9707 31.3164C40.0072 31.9023 38.9167 32.1953 37.6992 32.1953C36.4688 32.1953 35.3685 31.9023 34.3984 31.3164C33.4349 30.724 32.6797 29.8809 32.1328 28.7871C31.5859 27.6868 31.3125 26.401 31.3125 24.9297C31.3125 23.4518 31.5859 22.166 32.1328 21.0723C32.6797 19.972 33.4349 19.1289 34.3984 18.543C35.3685 17.957 36.4688 17.6641 37.6992 17.6641C38.9167 17.6641 40.0072 17.957 40.9707 18.543C41.9408 19.1289 42.6992 19.972 43.2461 21.0723C43.793 22.166 44.0664 23.4518 44.0664 24.9297ZM41.9375 24.9297C41.9375 23.8099 41.7552 22.8529 41.3906 22.0586C41.026 21.2643 40.5215 20.6621 39.877 20.252C39.2389 19.8418 38.513 19.6367 37.6992 19.6367C36.8789 19.6367 36.1465 19.8418 35.502 20.252C34.8574 20.6621 34.3529 21.2643 33.9883 22.0586C33.6237 22.8529 33.4414 23.8099 33.4414 24.9297C33.4414 26.0495 33.6237 27.0065 33.9883 27.8008C34.3529 28.5951 34.8574 29.1973 35.502 29.6074C36.1465 30.0176 36.8789 30.2227 37.6992 30.2227C38.513 30.2227 39.2389 30.0176 39.877 29.6074C40.5215 29.1973 41.026 28.5951 41.3906 27.8008C41.7552 27 41.9375 26.043 41.9375 24.9297ZM45.9883 32V17.8594H50.7148C52.0951 17.8594 53.2832 18.1426 54.2793 18.709C55.2819 19.2689 56.0469 20.0794 56.5742 21.1406C57.1081 22.1953 57.375 23.4518 57.375 24.9102C57.375 26.375 57.1048 27.6413 56.5645 28.709C56.0306 29.7702 55.2526 30.584 54.2305 31.1504C53.2148 31.7168 51.9974 32 50.5781 32H45.9883ZM50.4609 30.125C52.043 30.125 53.2344 29.679 54.0352 28.7871C54.8424 27.8887 55.2461 26.5964 55.2461 24.9102C55.2461 23.237 54.849 21.9577 54.0547 21.0723C53.2669 20.1803 52.1081 19.7344 50.5781 19.7344H48.1367V30.125H50.4609ZM57.5 32L62.5781 17.8594H65.0586L70.1562 32H67.8711L66.582 28.2695H61.0742L59.7852 32H57.5ZM65.957 26.4727L63.8672 20.4375H63.7695L61.6895 26.4727H65.957ZM71.3555 17.8594L75.0273 24.2656H75.1836L78.875 17.8594H81.3164L76.1797 26.4531V32H74.0312V26.4531L68.9141 17.8594H71.3555ZM27.7305 47.4102L29.0977 49.1777C29.5729 48.722 29.9408 48.1361 30.2012 47.4199C30.4681 46.7038 30.6016 45.8737 30.6016 44.9297C30.6016 43.8099 30.4193 42.8529 30.0547 42.0586C29.6901 41.2643 29.1855 40.6621 28.541 40.252C27.903 39.8418 27.1771 39.6367 26.3633 39.6367C25.543 39.6367 24.8105 39.8418 24.166 40.252C23.5215 40.6621 23.0169 41.2643 22.6523 42.0586C22.2878 42.8529 22.1055 43.8099 22.1055 44.9297C22.1055 46.0495 22.2878 47.0065 22.6523 47.8008C23.0169 48.5951 23.5215 49.1973 24.166 49.6074C24.8105 50.0176 25.543 50.2227 26.3633 50.2227C26.819 50.2227 27.2422 50.1608 27.6328 50.0371L25.6211 47.4102H27.7305ZM32.7305 44.9297C32.7305 46.2057 32.5221 47.3451 32.1055 48.3477C31.6953 49.3438 31.1159 50.1576 30.3672 50.7891L32.2812 53.2695H30.0742L28.8828 51.707C28.1146 52.0326 27.2747 52.1953 26.3633 52.1953C25.1328 52.1953 24.0326 51.9023 23.0625 51.3164C22.099 50.724 21.3438 49.8809 20.7969 48.7871C20.25 47.6868 19.9766 46.401 19.9766 44.9297C19.9766 43.4518 20.25 42.166 20.7969 41.0723C21.3438 39.972 22.099 39.1289 23.0625 38.543C24.0326 37.957 25.1328 37.6641 26.3633 37.6641C27.5807 37.6641 28.6712 37.957 29.6348 38.543C30.6048 39.1289 31.3633 39.972 31.9102 41.0723C32.457 42.166 32.7305 43.4518 32.7305 44.9297ZM45.8828 37.8594V47.1562C45.8828 48.1393 45.6484 49.015 45.1797 49.7832C44.7174 50.5514 44.0599 51.1536 43.207 51.5898C42.3607 52.0195 41.3841 52.2344 40.2773 52.2344C39.1576 52.2344 38.1712 52.0195 37.3184 51.5898C36.4655 51.1602 35.8079 50.5612 35.3457 49.793C34.8835 49.0182 34.6523 48.1393 34.6523 47.1562V37.8594H36.8008V46.9805C36.8008 47.6185 36.9408 48.1882 37.2207 48.6895C37.5072 49.1842 37.9108 49.5749 38.4316 49.8613C38.959 50.1413 39.5742 50.2812 40.2773 50.2812C40.974 50.2812 41.5827 50.1413 42.1035 49.8613C42.6243 49.5749 43.0247 49.1842 43.3047 48.6895C43.5911 48.1882 43.7344 47.6185 43.7344 46.9805V37.8594H45.8828ZM48.2734 37.8594H57.1406V39.7148H50.4219V43.9922H56.6719V45.8281H50.4219V50.1445H57.2188V52H48.2734V37.8594ZM66.9727 41.5898C66.9076 40.9453 66.6113 40.4408 66.084 40.0762C65.5566 39.7051 64.8828 39.5195 64.0625 39.5195C63.4961 39.5195 62.998 39.6107 62.5684 39.793C62.1387 39.9688 61.8066 40.2161 61.5723 40.5352C61.3444 40.8477 61.2305 41.2057 61.2305 41.6094C61.2305 42.2083 61.4746 42.6673 61.9629 42.9863C62.4512 43.3053 63.0664 43.556 63.8086 43.7383L65.1758 44.1094C66.3151 44.3763 67.2786 44.819 68.0664 45.4375C68.8542 46.056 69.2513 46.9414 69.2578 48.0938C69.2513 48.8945 69.0397 49.6074 68.623 50.2324C68.2064 50.8574 67.6042 51.349 66.8164 51.707C66.0286 52.0586 65.0911 52.2344 64.0039 52.2344C62.9557 52.2344 62.041 52.0684 61.2598 51.7363C60.485 51.3978 59.8763 50.916 59.4336 50.291C58.9974 49.666 58.7565 48.9271 58.7109 48.0742H60.8594C60.9245 48.8164 61.2467 49.3828 61.8262 49.7734C62.4056 50.1641 63.1315 50.3594 64.0039 50.3594C64.5964 50.3594 65.127 50.265 65.5957 50.0762C66.071 49.8809 66.4421 49.6107 66.709 49.2656C66.9824 48.9141 67.1224 48.5104 67.1289 48.0547C67.1224 47.4883 66.8913 47.0488 66.4355 46.7363C65.9798 46.4173 65.319 46.1471 64.4531 45.9258L62.7734 45.4766C60.3125 44.7995 59.082 43.5495 59.082 41.7266C59.082 40.9323 59.3001 40.2259 59.7363 39.6074C60.179 38.9889 60.7845 38.5104 61.5527 38.1719C62.321 37.8333 63.1771 37.6641 64.1211 37.6641C65.0651 37.6641 65.9082 37.8333 66.6504 38.1719C67.3926 38.5039 67.9753 38.9694 68.3984 39.5684C68.8216 40.1608 69.043 40.8346 69.0625 41.5898H66.9727ZM70.3594 37.8594H81.3164V39.7148H76.9219V52H74.7734V39.7148H70.3594V37.8594ZM85.1523 52H83.0039V37.8594H85.1523V52ZM99.8086 44.9297C99.8086 46.401 99.5352 47.6868 98.9883 48.7871C98.4414 49.8809 97.6829 50.724 96.7129 51.3164C95.7493 51.9023 94.6589 52.1953 93.4414 52.1953C92.2109 52.1953 91.1107 51.9023 90.1406 51.3164C89.1771 50.724 88.4219 49.8809 87.875 48.7871C87.3281 47.6868 87.0547 46.401 87.0547 44.9297C87.0547 43.4518 87.3281 42.166 87.875 41.0723C88.4219 39.972 89.1771 39.1289 90.1406 38.543C91.1107 37.957 92.2109 37.6641 93.4414 37.6641C94.6589 37.6641 95.7493 37.957 96.7129 38.543C97.6829 39.1289 98.4414 39.972 98.9883 41.0723C99.5352 42.166 99.8086 43.4518 99.8086 44.9297ZM97.6797 44.9297C97.6797 43.8099 97.4974 42.8529 97.1328 42.0586C96.7682 41.2643 96.2637 40.6621 95.6191 40.252C94.9811 39.8418 94.2552 39.6367 93.4414 39.6367C92.6211 39.6367 91.8887 39.8418 91.2441 40.252C90.5996 40.6621 90.0951 41.2643 89.7305 42.0586C89.3659 42.8529 89.1836 43.8099 89.1836 44.9297C89.1836 46.0495 89.3659 47.0065 89.7305 47.8008C90.0951 48.5951 90.5996 49.1973 91.2441 49.6074C91.8887 50.0176 92.6211 50.2227 93.4414 50.2227C94.2552 50.2227 94.9811 50.0176 95.6191 49.6074C96.2637 49.1973 96.7682 48.5951 97.1328 47.8008C97.4974 47 97.6797 46.043 97.6797 44.9297ZM113.137 52H111.164L103.996 41.668H103.879V52H101.73V37.8594H103.723L110.891 48.2109H111.027V37.8594H113.137V52Z" fill="white"/>
</g>
<defs>
<filter id="filter0_d_123_190" x="0" y="0" width="338" height="128" filterUnits="userSpaceOnUse" color-interpolation-filters="sRGB">
<feFlood flood-opacity="0" result="BackgroundImageFix"/>
<feColorMatrix in="SourceAlpha" type="matrix" values="0 0 0 0 0 0 0 0 0 0 0 0 0 0 0 0 0 0 127 0" result="hardAlpha"/>
<feOffset dy="4"/>
<feGaussianBlur stdDeviation="2"/>
<feComposite in2="hardAlpha" operator="out"/>
<feColorMatrix type="matrix" values="0 0 0 0 0 0 0 0 0 0 0 0 0 0 0 0 0 0 0.25 0"/>
<feBlend mode="normal" in2="BackgroundImageFix" result="effect1_dropShadow_123_190"/>
<feBlend mode="normal" in="SourceGraphic" in2="effect1_dropShadow_123_190" result="shape"/>
</filter>
<linearGradient id="paint0_linear_123_190" x1="3.99999" y1="3.00001" x2="330.5" y2="120" gradientUnits="userSpaceOnUse">
<stop stop-color="#458FFF"/>
<stop offset="0.505" stop-color="#F38B8B"/>
<stop offset="1" stop-color="#82B6FF"/>
</linearGradient>
</defs>
</svg>
