<svg width="144" height="293" viewBox="0 0 144 293" fill="none" xmlns="http://www.w3.org/2000/svg">
<g filter="url(#filter0_d_668_498)">
<path d="M138 0L138 285" stroke="#123170" stroke-width="3"/>
<path d="M6 0L5.99999 285" stroke="#123170" stroke-width="3"/>
<path d="M72 0L72 285" stroke="#123170" stroke-width="3"/>
<rect x="81.5" y="1.5" width="47" height="282" stroke="#123170" stroke-width="3"/>
<rect x="81" y="1" width="48" height="48" stroke="#123170" stroke-width="2"/>
<path d="M118.077 16.9V19.56H114.717V25.216H111.945V12H114.717V16.9H118.077ZM110.209 22.78C109.463 23.0973 108.408 23.3587 107.045 23.564C105.701 23.7507 104.189 23.844 102.509 23.844H93.9132V12.588H108.501V14.94H96.6852V21.492H102.677C104.301 21.492 105.767 21.3987 107.073 21.212C108.399 21.0253 109.444 20.764 110.209 20.428V22.78ZM104.833 26C107.913 26 110.387 26.4013 112.253 27.204C114.139 28.0067 115.081 29.2573 115.081 30.956C115.081 32.6547 114.139 33.9053 112.253 34.708C110.387 35.5107 107.913 35.912 104.833 35.912C101.753 35.912 99.2705 35.5107 97.3852 34.708C95.5185 33.9053 94.5852 32.6547 94.5852 30.956C94.5852 29.2573 95.5185 28.0067 97.3852 27.204C99.2705 26.4013 101.753 26 104.833 26ZM104.833 33.616C106.999 33.616 108.753 33.392 110.097 32.944C111.441 32.496 112.113 31.8333 112.113 30.956C112.113 30.0787 111.441 29.416 110.097 28.968C108.753 28.52 106.999 28.296 104.833 28.296C102.687 28.296 100.932 28.52 99.5692 28.968C98.2252 29.416 97.5532 30.0787 97.5532 30.956C97.5532 31.8333 98.2252 32.496 99.5692 32.944C100.913 33.392 102.668 33.616 104.833 33.616Z" fill="#123170"/>
<rect x="81" y="48" width="48" height="48" stroke="#123170" stroke-width="2"/>
<path d="M115.389 76.752H112.617V59H115.389V76.752ZM101.473 67.54C100.559 69.0893 99.4105 70.3587 98.0292 71.348C96.6479 72.3187 95.1172 72.916 93.4372 73.14V70.536C94.9119 70.2747 96.1999 69.6027 97.3012 68.52C98.4212 67.4373 99.2799 66.084 99.8772 64.46C100.493 62.836 100.811 61.0907 100.829 59.224L103.601 59.392C103.601 61.4267 103.256 63.368 102.565 65.216L110.237 70.872L108.585 72.888L101.473 67.54ZM116.033 80.14V82.604H95.1172V74.988H97.9172V80.14H116.033Z" fill="#123170"/>
<rect x="81" y="95" width="48" height="48" stroke="#123170" stroke-width="2"/>
<path d="M112.701 106H115.473V129.912H112.701V106ZM101.277 121.568C99.8585 121.568 98.5892 121.251 97.4692 120.616C96.3492 119.981 95.4719 119.095 94.8372 117.956C94.2025 116.799 93.8852 115.492 93.8852 114.036C93.8852 112.58 94.2025 111.283 94.8372 110.144C95.4719 108.987 96.3492 108.091 97.4692 107.456C98.5892 106.821 99.8585 106.504 101.277 106.504C102.696 106.504 103.965 106.821 105.085 107.456C106.205 108.091 107.083 108.987 107.717 110.144C108.352 111.283 108.669 112.58 108.669 114.036C108.669 115.492 108.352 116.799 107.717 117.956C107.083 119.095 106.205 119.981 105.085 120.616C103.965 121.251 102.696 121.568 101.277 121.568ZM101.277 119.048C102.211 119.048 103.023 118.833 103.713 118.404C104.423 117.956 104.973 117.359 105.365 116.612C105.757 115.847 105.953 114.988 105.953 114.036C105.953 113.084 105.757 112.225 105.365 111.46C104.973 110.695 104.423 110.097 103.713 109.668C103.004 109.22 102.192 108.996 101.277 108.996C100.344 108.996 99.5225 109.22 98.8132 109.668C98.1039 110.097 97.5532 110.695 97.1612 111.46C96.7879 112.225 96.6012 113.084 96.6012 114.036C96.6012 115.492 97.0305 116.696 97.8892 117.648C98.7479 118.581 99.8772 119.048 101.277 119.048ZM93.0732 125.88H102.845C104.525 125.88 106.056 125.787 107.437 125.6C108.819 125.413 109.901 125.133 110.685 124.76V127.336C109.883 127.691 108.781 127.971 107.381 128.176C105.981 128.381 104.413 128.484 102.677 128.484H93.0732V125.88Z" fill="#123170"/>
<rect x="81" y="142" width="48" height="48" stroke="#123170" stroke-width="2"/>
<path d="M116.957 173.16V175.764H93.0732V173.16H103.573V168.064C101.688 167.933 100.036 167.551 98.6172 166.916C97.2172 166.281 96.1345 165.441 95.3692 164.396C94.6039 163.332 94.2212 162.128 94.2212 160.784C94.2212 159.328 94.6692 158.049 95.5652 156.948C96.4612 155.828 97.7212 154.96 99.3452 154.344C100.969 153.728 102.855 153.42 105.001 153.42C107.148 153.42 109.033 153.728 110.657 154.344C112.281 154.96 113.541 155.828 114.437 156.948C115.333 158.049 115.781 159.328 115.781 160.784C115.781 162.128 115.399 163.332 114.633 164.396C113.868 165.441 112.776 166.281 111.357 166.916C109.939 167.551 108.287 167.933 106.401 168.064V173.16H116.957ZM97.1612 160.784C97.1612 161.736 97.4879 162.576 98.1412 163.304C98.7945 164.032 99.7092 164.601 100.885 165.012C102.08 165.404 103.452 165.6 105.001 165.6C106.569 165.6 107.941 165.404 109.117 165.012C110.312 164.601 111.236 164.032 111.889 163.304C112.543 162.576 112.869 161.736 112.869 160.784C112.869 159.832 112.543 158.992 111.889 158.264C111.236 157.517 110.312 156.948 109.117 156.556C107.941 156.145 106.569 155.94 105.001 155.94C103.452 155.94 102.08 156.145 100.885 156.556C99.7092 156.948 98.7945 157.517 98.1412 158.264C97.4879 158.992 97.1612 159.832 97.1612 160.784Z" fill="#123170"/>
<rect x="81" y="189" width="48" height="48" stroke="#123170" stroke-width="2"/>
<path d="M94.7812 200H97.5532V205.684H115.529V207.868H94.7812V200ZM93.0732 209.828H116.957V212.012H93.0732V209.828ZM94.7252 217.808H112.589V216.072H94.6692V213.972H115.305V219.796H97.4412V221.532H115.725V223.632H94.7252V217.808Z" fill="#123170"/>
<rect x="81" y="236" width="48" height="48" stroke="#123170" stroke-width="2"/>
<path d="M105.001 255.624C101.865 255.624 99.3265 255.279 97.3852 254.588C95.4625 253.879 94.5012 252.768 94.5012 251.256C94.5012 249.763 95.4625 248.671 97.3852 247.98C99.3265 247.271 101.865 246.916 105.001 246.916C108.137 246.916 110.667 247.271 112.589 247.98C114.531 248.671 115.501 249.763 115.501 251.256C115.501 252.768 114.531 253.879 112.589 254.588C110.667 255.279 108.137 255.624 105.001 255.624ZM105.001 253.496C107.26 253.496 109.099 253.309 110.517 252.936C111.936 252.563 112.645 252.003 112.645 251.256C112.645 250.509 111.927 249.949 110.489 249.576C109.071 249.203 107.241 249.016 105.001 249.016C102.761 249.016 100.923 249.203 99.4852 249.576C98.0665 249.949 97.3572 250.509 97.3572 251.256C97.3572 252.003 98.0665 252.563 99.4852 252.936C100.904 253.309 102.743 253.496 105.001 253.496ZM93.0732 257.108H116.957V259.264H93.0732V257.108ZM94.7252 264.92H112.589V263.24H94.6692V261.168H115.305V266.88H97.4412V268.56H115.725V270.632H94.7252V264.92Z" fill="#123170"/>
<rect x="15.5" y="1.5" width="47" height="282" stroke="#123170" stroke-width="3"/>
<rect x="14.75" y="0.75" width="48.5" height="48.5" stroke="#123170" stroke-width="1.5"/>
<path d="M33.7652 21.52C32.3652 24.5813 30.2465 26.392 27.4092 26.952V24.292C30.7319 23.3027 32.5799 19.2613 32.9532 12.168L35.6692 12.532C35.5572 14.716 35.2585 16.7693 34.7732 18.692L38.8892 23.9C41.6145 22.4253 43.1452 18.5147 43.4812 12.168L46.2252 12.532C46.0759 15.0147 45.7585 17.1053 45.2732 18.804L50.8172 25.132L48.7452 26.784L44.2932 21.52C42.8932 24.5813 40.7745 26.392 37.9372 26.952L33.7652 21.52ZM50.9572 32.16V34.764H27.0732V32.16H50.9572Z" fill="#123170"/>
<rect x="14.75" y="47.75" width="48.5" height="48.5" stroke="#123170" stroke-width="1.5"/>
<path d="M52.0772 66.56H48.7172V71.992H45.9452V59H48.7172V63.9H52.0772V66.56ZM44.2092 69.78C43.4625 70.0973 42.4079 70.3587 41.0452 70.564C39.7012 70.7507 38.1892 70.844 36.5092 70.844H27.9132V59.588H42.5012V61.94H30.6852V68.492H36.6772C38.3012 68.492 39.7665 68.3987 41.0732 68.212C42.3985 68.0253 43.4439 67.764 44.2092 67.428V69.78ZM28.7252 73.308H48.7172V82.604H28.7252V73.308ZM31.4972 80.252H45.9452V75.66H31.4972V80.252Z" fill="#123170"/>
<rect x="14.75" y="94.75" width="48.5" height="48.5" stroke="#123170" stroke-width="1.5"/>
<path d="M33.7652 115.52C32.3652 118.581 30.2465 120.392 27.4092 120.952V118.292C30.7319 117.303 32.5799 113.261 32.9532 106.168L35.6692 106.532C35.5572 108.716 35.2585 110.769 34.7732 112.692L38.8892 117.9C41.6145 116.425 43.1452 112.515 43.4812 106.168L46.2252 106.532C46.0759 109.015 45.7585 111.105 45.2732 112.804L50.8172 119.132L48.7452 120.784L44.2932 115.52C42.8932 118.581 40.7745 120.392 37.9372 120.952L33.7652 115.52ZM50.9572 126.16V128.764H27.0732V126.16H50.9572Z" fill="#123170"/>
<rect x="14.75" y="141.75" width="48.5" height="48.5" stroke="#123170" stroke-width="1.5"/>
<path d="M52.0772 160.56H48.7172V165.992H45.9452V153H48.7172V157.9H52.0772V160.56ZM44.2092 163.78C43.4625 164.097 42.4079 164.359 41.0452 164.564C39.7012 164.751 38.1892 164.844 36.5092 164.844H27.9132V153.588H42.5012V155.94H30.6852V162.492H36.6772C38.3012 162.492 39.7665 162.399 41.0732 162.212C42.3985 162.025 43.4439 161.764 44.2092 161.428V163.78ZM28.7252 167.308H48.7172V176.604H28.7252V167.308ZM31.4972 174.252H45.9452V169.66H31.4972V174.252Z" fill="#123170"/>
<rect x="14.75" y="188.75" width="48.5" height="48.5" stroke="#123170" stroke-width="1.5"/>
<rect x="14.75" y="235.75" width="48.5" height="48.5" stroke="#123170" stroke-width="1.5"/>
</g>
<defs>
<filter id="filter0_d_668_498" x="0.5" y="0" width="143" height="293" filterUnits="userSpaceOnUse" color-interpolation-filters="sRGB">
<feFlood flood-opacity="0" result="BackgroundImageFix"/>
<feColorMatrix in="SourceAlpha" type="matrix" values="0 0 0 0 0 0 0 0 0 0 0 0 0 0 0 0 0 0 127 0" result="hardAlpha"/>
<feOffset dy="4"/>
<feGaussianBlur stdDeviation="2"/>
<feComposite in2="hardAlpha" operator="out"/>
<feColorMatrix type="matrix" values="0 0 0 0 0 0 0 0 0 0 0 0 0 0 0 0 0 0 0.25 0"/>
<feBlend mode="normal" in2="BackgroundImageFix" result="effect1_dropShadow_668_498"/>
<feBlend mode="normal" in="SourceGraphic" in2="effect1_dropShadow_668_498" result="shape"/>
</filter>
</defs>
</svg>
